<svg width="168" height="155" viewBox="0 0 168 155" fill="none" xmlns="http://www.w3.org/2000/svg">
<path d="M96.819 87.8472C95.4607 88.1514 94.1377 88.715 92.9321 89.5024C89.7913 91.5037 87.964 94.3604 88.851 95.8826C89.7379 97.4047 93.003 97.0154 96.1438 95.0141C97.3655 94.2545 98.4509 93.2837 99.3331 92.1617C99.7425 91.6196 99.816 90.9442 99.5207 90.4393L98.3685 88.4619C98.0754 87.9554 97.4673 87.7145 96.819 87.8472Z" fill="#D5D6DB"/>
<path d="M88.932 60.8541C87.9471 61.0749 86.9876 61.4837 86.1134 62.0547C83.8365 63.5055 82.5108 65.5769 83.1534 66.6797C83.796 67.7825 86.1644 67.5 88.441 66.0493C89.3269 65.4983 90.1139 64.794 90.7537 63.9803C91.0501 63.5874 91.1033 63.0981 90.8893 62.732L90.055 61.3002C89.8427 60.933 89.4021 60.758 88.932 60.8541Z" fill="#D5D6DB"/>
<path d="M76.1179 61.9845C75.8987 61.9601 75.6649 62.0185 75.4621 62.148L70.1139 65.5562C69.6666 65.8404 69.4876 66.3878 69.7145 66.7789C69.7664 66.8686 69.8374 66.9451 69.9236 67.0041L83.1053 76.0891L100.939 64.7244L76.1179 61.9845Z" fill="#029BC5"/>
<path d="M132.497 60.5706L83.9651 91.1227L54.4575 101.198L39.0604 102.827L37.0011 99.3281L118.013 49.5803C120.427 48.0901 123.205 47.3296 126.066 47.3761C127.32 47.404 128.575 47.5998 129.802 47.9583C130.889 48.2667 131.938 48.737 132.917 49.3552C134.01 50.0538 135.99 50.3548 136.743 51.5771C136.745 51.5755 138.775 57.0176 132.497 60.5706Z" fill="#E1E6E9"/>
<path d="M84.6061 87.2094L63.6109 120.679C63.3486 121.15 63.5043 121.676 63.9582 121.855C64.2367 121.965 64.5777 121.922 64.8641 121.74L70.2081 118.35C71.2359 117.697 72.146 116.869 72.8822 115.915L113.599 68.0462L84.6061 87.2094Z" fill="#029BC5"/>
<path d="M31.6265 86.092C31.2763 85.9723 30.8595 86.0344 30.5077 86.2584L26.0902 89.0718C25.4883 89.4549 25.2485 90.1913 25.5543 90.717C25.6126 90.8169 25.6883 90.9049 25.779 90.9773L38.1558 100.89L51.1688 92.7615L31.6265 86.092Z" fill="#029BC5"/>
<path d="M42.3042 102.677L35.6428 112.006C35.5451 112.14 35.5681 112.308 35.694 112.382C35.7848 112.435 35.9089 112.425 36.0096 112.358L40.1379 109.742C40.17 109.721 40.199 109.696 40.223 109.667L49.9565 97.832L42.3042 102.677Z" fill="#029BC5"/>
<path d="M130.341 50.7631C129.187 50.5777 127.989 50.5381 126.776 50.6447C125.595 52.2958 124.841 54.1505 124.587 56.0239C124.569 56.4002 124.872 56.6711 125.265 56.6289C125.387 56.6157 125.509 56.5728 125.618 56.504L133.226 51.6597C132.336 51.2211 131.365 50.9193 130.341 50.7631Z" fill="#029BC5"/>
<path d="M113.762 59.6712L118.729 56.5343L123.356 64.4033L118.389 67.5403L113.762 59.6712Z" fill="#D5D6DB"/>
<path d="M110.637 62.7834C110.038 63.1626 109.799 63.8914 110.103 64.4111L110.595 65.2531C110.919 65.7595 111.658 65.8486 112.246 65.4519C112.806 65.0741 113.032 64.3874 112.762 63.8804L112.27 63.0384C111.966 62.5191 111.235 62.4049 110.637 62.7834Z" fill="#3A556A"/>
<path d="M106.172 65.5559C105.574 65.935 105.334 66.6638 105.638 67.1836L106.131 68.0255C106.454 68.532 107.194 68.6211 107.782 68.2244C108.342 67.8466 108.567 67.1599 108.297 66.6529L107.805 65.8109C107.501 65.2918 106.77 65.1775 106.172 65.5559Z" fill="#3A556A"/>
<path d="M101.706 68.3293C101.108 68.7089 100.87 69.4368 101.174 69.9561L101.666 70.798C101.99 71.3045 102.729 71.3935 103.317 70.9968C103.877 70.6191 104.103 69.9324 103.833 69.4254L103.341 68.5834C103.037 68.0637 102.305 67.95 101.706 68.3293Z" fill="#3A556A"/>
<path d="M97.242 71.1016C96.6441 71.4813 96.4057 72.2092 96.7093 72.7285L97.2016 73.5705C97.5255 74.0769 98.2648 74.166 98.853 73.7693C99.4129 73.3915 99.6383 72.7048 99.3685 72.1978L98.8762 71.3558C98.5721 70.8362 97.8405 70.7225 97.242 71.1016Z" fill="#3A556A"/>
<path d="M92.778 73.8743C92.1798 74.2541 91.9413 74.9823 92.2451 75.5018L92.7377 76.3442C93.0413 76.8634 93.7726 76.9772 94.371 76.5982C94.9693 76.2192 95.2082 75.491 94.9046 74.9717L94.412 74.1294C94.109 73.6096 93.3781 73.4952 92.7793 73.8735C92.7788 73.8738 92.7785 73.874 92.778 73.8743Z" fill="#3A556A"/>
<path d="M88.3137 76.6468C87.7154 77.0266 87.4769 77.7548 87.7807 78.2743L88.2733 79.1166C88.577 79.6359 89.3082 79.7496 89.9066 79.3706C90.505 78.9916 90.7439 78.2635 90.4402 77.7442L89.9476 76.9019C89.6447 76.3821 88.9137 76.2676 88.3149 76.646C88.3144 76.6463 88.3139 76.6466 88.3137 76.6468Z" fill="#3A556A"/>
<path d="M83.8491 79.4193C83.2508 79.7991 83.0123 80.5273 83.3161 81.0468L83.8087 81.8891C84.1131 82.4079 84.8447 82.5204 85.4424 82.141C86.0392 81.7621 86.2776 81.0355 85.9753 80.5168L85.4827 79.6745C85.1792 79.1549 84.4479 79.0406 83.8491 79.4193Z" fill="#3A556A"/>
<path d="M79.3845 82.1918C78.7862 82.5716 78.5477 83.2998 78.8515 83.8193L79.3441 84.6616C79.6485 85.1804 80.3801 85.293 80.9778 84.9135C81.5746 84.5347 81.813 83.808 81.5107 83.2894L81.0181 82.447C80.7146 81.9274 79.9833 81.8131 79.3845 82.1918Z" fill="#3A556A"/>
<path d="M74.9202 84.9642C74.322 85.344 74.0835 86.0722 74.3873 86.5917L74.8799 87.434C75.1843 87.9528 75.9159 88.0654 76.5136 87.6859C77.1103 87.307 77.3487 86.5804 77.0465 86.0618L76.5539 85.2195C76.2501 84.7 75.5188 84.5857 74.9202 84.9642Z" fill="#3A556A"/>
<path d="M70.4544 87.7374C69.856 88.1164 69.6171 88.8446 69.9208 89.3639L69.9214 89.365L70.414 90.2073C70.7185 90.7261 71.4501 90.8387 72.0478 90.4592C72.6445 90.0803 72.8829 89.3537 72.5806 88.835L72.088 87.9927C71.7845 87.473 71.0533 87.3587 70.4544 87.7374Z" fill="#3A556A"/>
<path d="M65.9912 90.5091C65.3928 90.8881 65.1539 91.6163 65.4576 92.1355L65.4582 92.1366L65.9508 92.9789C66.2552 93.4977 66.9868 93.6103 67.5846 93.2308C68.1813 92.852 68.4197 92.1253 68.1174 91.6067L67.6248 90.7644C67.321 90.2449 66.5898 90.1306 65.9912 90.5091Z" fill="#3A556A"/>
</svg>
